#N canvas 1073 347 622 546 10;
#X obj 229 76 inlet;
#X obj 229 158 * \$1;
#X obj 229 236 osc~;
#X obj 229 333 outlet~;
#X obj 229 265 *~ \$2;
#X obj 229 299 mute_abs~;
#X obj 388 76 inlet;
#X obj 140 75 r frequency;
#X obj 289 272 tgl 15 0 empty empty empty 17 7 0 10 -262144 -1 -1 0
1;
#X floatatom 229 130 5 0 0 0 - - -, f 5;
#X obj 132 237 snapshot~;
#X obj 132 175 tgl 15 0 empty empty empty 17 7 0 10 -262144 -1 -1 0
1;
#X obj 229 184 sig~;
#X obj 229 212 +~;
#X floatatom 132 269 5 0 0 0 - - -, f 5;
#X obj 132 202 metro 50;
#X obj 283 131 osc~ 2;
#X obj 283 161 *~ 1.5;
#X connect 0 0 9 0;
#X connect 1 0 12 0;
#X connect 2 0 4 0;
#X connect 4 0 5 0;
#X connect 5 0 3 0;
#X connect 6 0 8 0;
#X connect 7 0 9 0;
#X connect 8 0 5 1;
#X connect 9 0 1 0;
#X connect 10 0 14 0;
#X connect 11 0 15 0;
#X connect 12 0 13 0;
#X connect 13 0 2 0;
#X connect 13 0 10 0;
#X connect 15 0 10 0;
#X connect 16 0 17 0;
#X connect 17 0 13 1;
