#N canvas 1104 212 581 491 10;
#X obj 229 76 inlet;
#X obj 229 158 * \$1;
#X obj 229 195 osc~;
#X obj 229 303 outlet~;
#X obj 229 235 *~ \$2;
#X obj 229 269 mute_abs~;
#X obj 280 76 inlet;
#X obj 140 75 r frequency;
#X obj 280 242 tgl 15 0 empty empty empty 17 7 0 10 -262144 -1 -1 0
1;
#X floatatom 229 130 5 0 0 0 - - -;
#X obj 324 334 vu 15 120 empty empty -1 -8 0 10 -66577 -1 1 0;
#X obj 323 303 snapshot~;
#X obj 323 268 metro 500;
#X obj 323 241 tgl 15 0 empty empty empty 17 7 0 10 -262144 -1 -1 0
1;
#X connect 0 0 9 0;
#X connect 1 0 2 0;
#X connect 2 0 4 0;
#X connect 4 0 5 0;
#X connect 5 0 3 0;
#X connect 5 0 11 0;
#X connect 6 0 8 0;
#X connect 7 0 9 0;
#X connect 8 0 5 1;
#X connect 9 0 1 0;
#X connect 11 0 10 0;
#X connect 12 0 11 0;
#X connect 13 0 12 0;
