#N canvas 741 244 247 444 10;
#X obj 124 152 tgl 15 0 empty empty empty 17 7 0 10 -262144 -1 -1 1
1;
#X obj 57 208 osc~ 440;
#X floatatom 57 151 10 0 0 0 - - -;
#X obj 72 275 line~;
#X msg 120 246 0 500;
#X msg 72 246 1 500;
#X obj 57 301 *~;
#X obj 124 209 select 1;
#X obj 57 342 output~;
#X obj 57 180 sig~;
#X msg 57 120 349.23;
#X connect 0 0 7 0;
#X connect 1 0 6 0;
#X connect 2 0 9 0;
#X connect 3 0 6 1;
#X connect 4 0 3 0;
#X connect 5 0 3 0;
#X connect 6 0 8 1;
#X connect 6 0 8 0;
#X connect 7 0 5 0;
#X connect 7 1 4 0;
#X connect 9 0 1 0;
#X connect 10 0 2 0;
