#N canvas 19 188 549 525 10;
#X obj 44 104 inlet;
#X obj 44 137 sel 0;
#X msg 44 169 stop;
#X text 41 20 **adsr_abs~.pd** ADSR Envelope Generator. Lifted directly
from http://msp.ucsd.edu/techniques/v0.11/book-html/node69.html#fig04.14
;
#X obj 121 169 moses;
#X obj 84 196 t b b;
#X obj 148 229 t b;
#X msg 111 307 0;
#X obj 190 486 outlet~;
#X obj 190 457 line~;
#X obj 148 307 pack 0 \$2;
#X obj 148 279 f \$1;
#X text 163 169 Test for negative trigger \; jump to zero if found
;
#X obj 224 307 del \$2;
#X obj 224 333 f \$4;
#X obj 224 361 * 0.01;
#X obj 224 387 * \$1;
#X obj 224 415 pack 0 \$3;
#X obj 335 307 pack 0 \$5;
#X obj 278 206 inlet;
#X obj 325 206 inlet;
#X obj 371 206 inlet;
#X obj 418 206 inlet;
#X obj 465 207 inlet;
#X connect 0 0 1 0;
#X connect 1 0 2 0;
#X connect 1 0 18 0;
#X connect 1 1 4 0;
#X connect 4 0 5 0;
#X connect 4 1 6 0;
#X connect 5 0 6 0;
#X connect 5 1 7 0;
#X connect 6 0 11 0;
#X connect 6 0 13 0;
#X connect 7 0 9 0;
#X connect 9 0 8 0;
#X connect 10 0 9 0;
#X connect 11 0 10 0;
#X connect 13 0 14 0;
#X connect 14 0 15 0;
#X connect 15 0 16 0;
#X connect 16 0 17 0;
#X connect 17 0 9 0;
#X connect 18 0 9 0;
#X connect 19 0 11 1;
#X connect 20 0 10 1;
#X connect 20 0 13 1;
#X connect 21 0 17 1;
#X connect 22 0 14 1;
#X connect 23 0 18 1;
