#N canvas 539 264 697 614 10;
#X msg 319 167 1;
#X msg 319 213 0;
#X obj 265 258 readsf~ 2;
#X obj 319 146 t b b;
#X obj 319 191 t b b;
#X obj 266 120 inlet;
#X obj 319 120 inlet;
#X obj 429 120 inlet;
#X obj 205 420 outlet~;
#X obj 390 420 outlet~;
#X obj 429 192 send startRecording;
#X obj 429 242 send stopRecording;
#X obj 183 257 adc~;
#X obj 205 394 mute_abs~;
#X obj 390 394 mute_abs~;
#X obj 183 370 mute_abs~;
#X obj 368 368 mute_abs~;
#X obj 474 120 inlet;
#X obj 524 120 inlet;
#X obj 474 293 expr if ($i1 <= 0 \, 1 \, 0) \;;
#X obj 524 315 expr if ($i1 <= 0 \, 1 \, 0) \;;
#X obj 429 167 gate;
#X obj 429 217 gate;
#X obj 298 236 gate;
#X obj 131 444 vu 15 120 empty empty -1 -8 0 10 -66577 -1 1 0;
#X obj 130 419 pvu~;
#X obj 82 444 vu 15 120 empty empty -1 -8 0 10 -66577 -1 1 0;
#X obj 81 419 pvu~;
#X obj 506 445 vu 15 120 empty empty -1 -8 0 10 -66577 -1 1 0;
#X obj 505 420 pvu~;
#X obj 457 445 vu 15 120 empty empty -1 -8 0 10 -66577 -1 1 0;
#X obj 456 420 pvu~;
#X text 435 571 Sound File Playback;
#X text 88 570 Audio In;
#X text 483 277 Invert toggle switches;
#X text 33 12 **ins_abs~.pd** Plays sound files and triggers recording
in outs_abs_.pd (must be used together). -- Inlets (l to r): message
consisting of: "open [file name]" \, bang to start soundfile playback
\, bang to stop soundfile playback \, toggle for adc~ input \, toggle
for sound file playing. -- Outlets (l to r): left channel audio \,
right channel audio \, sound file finished playing.;
#X obj 588 418 outlet;
#X connect 0 0 2 0;
#X connect 1 0 23 1;
#X connect 2 0 13 0;
#X connect 2 1 14 0;
#X connect 2 2 36 0;
#X connect 3 0 0 0;
#X connect 3 1 21 1;
#X connect 4 0 1 0;
#X connect 4 1 22 1;
#X connect 5 0 2 0;
#X connect 6 0 3 0;
#X connect 7 0 4 0;
#X connect 12 0 15 0;
#X connect 12 1 16 0;
#X connect 13 0 8 0;
#X connect 13 0 31 0;
#X connect 14 0 9 0;
#X connect 14 0 29 0;
#X connect 15 0 8 0;
#X connect 15 0 27 0;
#X connect 16 0 9 0;
#X connect 16 0 25 0;
#X connect 17 0 19 0;
#X connect 18 0 20 0;
#X connect 18 0 21 0;
#X connect 18 0 22 0;
#X connect 18 0 23 0;
#X connect 19 0 15 1;
#X connect 19 0 16 1;
#X connect 20 0 13 1;
#X connect 20 0 14 1;
#X connect 21 0 10 0;
#X connect 22 0 11 0;
#X connect 23 0 2 0;
#X connect 25 0 24 0;
#X connect 27 0 26 0;
#X connect 29 0 28 0;
#X connect 31 0 30 0;
