#N canvas 395 452 235 255 10;
#X obj 46 43 inlet~;
#X obj 46 209 outlet~;
#X obj 104 43 inlet;
#X obj 104 76 sel 0 1;
#X msg 104 103 1 100;
#X msg 155 103 0 100;
#X obj 104 130 line;
#X obj 46 181 *~ 1;
#X connect 0 0 7 0;
#X connect 2 0 3 0;
#X connect 3 0 4 0;
#X connect 3 1 5 0;
#X connect 4 0 6 0;
#X connect 5 0 6 0;
#X connect 6 0 7 1;
#X connect 7 0 1 0;
