#N canvas 589 427 727 364 10;
#X obj 46 103 inlet~;
#X obj 46 249 outlet~;
#X obj 104 103 inlet;
#X obj 104 136 sel 0 1;
#X msg 104 163 1 100;
#X msg 155 163 0 100;
#X obj 160 103 r mute_master;
#X text 43 22 **mute_abs~.pd** Simple audio gate that ramps the signal
up/down to avoid clicks. -- Inlets (l to r): audio signal \, 0 or 1
to start or stop the sound. -- Receives: 'mute_master': 0 or 1 to start
or stop the sound. -- Outlets (l to r): audio output.;
#X obj 104 190 line~, f 6;
#X obj 46 221 *~;
#X connect 0 0 9 0;
#X connect 2 0 3 0;
#X connect 3 0 4 0;
#X connect 3 1 5 0;
#X connect 4 0 8 0;
#X connect 5 0 8 0;
#X connect 6 0 3 0;
#X connect 8 0 9 1;
#X connect 9 0 1 0;
