#N canvas 803 22 669 559 10;
#X msg 391 198 start;
#X msg 458 198 stop;
#X obj 194 367 dac~;
#X obj 323 368 writesf~ 2;
#X obj 323 198 inlet~;
#X obj 194 198 inlet~;
#X obj 391 142 receive startRecording;
#X obj 458 171 receive stopRecording;
#X obj 135 198 inlet;
#X obj 194 318 mute_abs~;
#X obj 215 340 mute_abs~;
#X obj 323 318 mute_abs~;
#X obj 380 340 mute_abs~;
#X obj 416 27 inlet;
#X obj 476 27 inlet;
#X obj 416 78 expr if ($i1 <= 0 \, 1 \, 0) \;;
#X obj 476 103 expr if ($i1 <= 0 \, 1 \, 0) \;;
#X obj 370 231 gate;
#X text 401 230 <-- Turn off messaging to writesf~;
#X obj 145 392 vu 15 120 empty empty -1 -8 0 10 -66577 -1 1 0;
#X obj 144 367 pvu~;
#X obj 96 392 vu 15 120 empty empty -1 -8 0 10 -66577 -1 1 0;
#X obj 95 367 pvu~;
#X text 482 62 Invert toggle switches;
#X text 101 519 Audio Out;
#X obj 452 393 vu 15 120 empty empty -1 -8 0 10 -66577 -1 1 0;
#X obj 451 368 pvu~;
#X obj 403 393 vu 15 120 empty empty -1 -8 0 10 -66577 -1 1 0;
#X obj 402 368 pvu~;
#X text 381 519 Sound File Recording;
#X text 24 30 **outs_abs~.pd** Records sound files and/or plays back
audio. Typically used with sfPlayer_abs~ -- Inlets (l to r): message
consisting of: "open [path/to/file/name]" \, left audio channel \,
right audio channel \, toggle for dac~ output \, toggle for sound file
recording. -- Receives: 'startRecording' \, 'stopRecording'.;
#X connect 0 0 17 1;
#X connect 1 0 17 1;
#X connect 4 0 10 0;
#X connect 4 0 12 0;
#X connect 5 0 9 0;
#X connect 5 0 11 0;
#X connect 6 0 0 0;
#X connect 7 0 1 0;
#X connect 8 0 3 0;
#X connect 9 0 2 0;
#X connect 9 0 22 0;
#X connect 10 0 2 1;
#X connect 10 0 20 0;
#X connect 11 0 3 0;
#X connect 11 0 28 0;
#X connect 12 0 3 1;
#X connect 12 0 26 0;
#X connect 13 0 15 0;
#X connect 14 0 16 0;
#X connect 14 0 17 0;
#X connect 15 0 9 1;
#X connect 15 0 10 1;
#X connect 16 0 11 1;
#X connect 16 0 12 1;
#X connect 17 0 3 0;
#X connect 20 0 19 0;
#X connect 22 0 21 0;
#X connect 26 0 25 0;
#X connect 28 0 27 0;
