#N canvas 522 169 814 602 10;
#N canvas 780 214 883 570 scope 0;
#X obj 620 292 edge~;
#N canvas 0 22 450 300 (subpatch) 0;
#X array oscilliscope 945 float 0;
#X coords 0 0.25 944 -0.25 400 280 1;
#X restore 14 44 graph;
#X obj 699 447 tabwrite~ oscilliscope;
#X obj 698 203 inlet~;
#X floatatom 368 24 7 0 0 0 samples - -, f 7;
#X msg 367 398 \; oscilliscope resize \$1;
#X obj 444 132 loadbang;
#X msg 444 174 1024;
#X obj 517 198 samplerate~;
#X obj 517 222 / 1000;
#X obj 472 246 pack f f;
#X obj 472 269 /;
#X obj 620 254 expr~ $v1>0;
#X msg 707 377 1;
#X msg 620 368 0;
#X obj 707 358 delay 10;
#X obj 620 320 t b b;
#X obj 367 370 speedlim 500;
#X obj 472 296 * 3;
#X obj 444 151 t b b;
#X obj 472 321 max 100;
#X obj 647 409 spigot 1;
#X obj 802 5 inlet;
#X connect 0 0 16 0;
#X connect 3 0 2 0;
#X connect 3 0 12 0;
#X connect 4 0 10 0;
#X connect 4 0 17 0;
#X connect 6 0 19 0;
#X connect 7 0 4 0;
#X connect 8 0 9 0;
#X connect 9 0 10 1;
#X connect 10 0 11 0;
#X connect 11 0 18 0;
#X connect 12 0 0 0;
#X connect 13 0 21 1;
#X connect 14 0 21 1;
#X connect 15 0 13 0;
#X connect 16 0 14 0;
#X connect 16 1 21 0;
#X connect 17 0 5 0;
#X connect 18 0 20 0;
#X connect 19 0 7 0;
#X connect 19 1 8 0;
#X connect 20 0 15 1;
#X connect 21 0 15 0;
#X connect 21 0 2 0;
#X connect 22 0 4 0;
#X coords 0 -1 1 1 408 326 1 10 10;
#X restore 70 214 pd scope;
#X text 61 36 Taken from https://forum.pdpatchrepo.info/topic/3164/what-s-the-best-way-to-create-an-oscilloscope-in-pd
\, in a link provided by user 'Maelstrom': http://www.pdpatchrepo.info/hurleur/scope.mmb.pd
;
#X obj 44 162 ins_abs~;
#X obj 83 133 tgl 15 0 empty empty empty 17 7 0 10 -262144 -1 -1 0
1;
#X obj 474 181 hsl 256 15 5 5000 0 0 empty empty Resolution -2 -8 0
10 -262144 -1 -1 4800 1;
#X text 109 134 Turn On/Off;
#X connect 2 1 0 0;
#X connect 3 0 2 3;
#X connect 4 0 0 1;
