#N canvas 288 590 686 377 10;
#X obj 57 258 readsf~;
#X obj 56 142 inlet;
#X obj 57 313 outlet~;
#X obj 115 142 inlet;
#X obj 179 142 inlet;
#X msg 115 201 start;
#X msg 179 201 stop;
#X text 52 37 **sfPlayer_abs~** Plays sound files -- Inlets (l to r):
message in format "open [sound file name]" to open the file \, bang
to start playback \, bang to stop playback.;
#X connect 0 0 2 0;
#X connect 1 0 0 0;
#X connect 3 0 5 0;
#X connect 4 0 6 0;
#X connect 5 0 0 0;
#X connect 6 0 0 0;
