#N canvas 429 260 1233 617 10;
#X obj 320 575 outs_abs~;
#X obj 422 544 tgl 15 0 empty empty empty 17 7 0 10 -262144 -1 -1 1
1;
#X obj 332 506 stereoVolume_abs~;
#X obj 434 485 hsl 64 10 0 1 0 0 empty empty Volume -2 -8 0 10 -262144
-1 -1 4800 1;
#X obj 347 178 sawtooth_abs~;
#X floatatom 347 139 5 0 0 0 - - -;
#X obj 347 221 lop~ 2000;
#X obj 347 249 lop~ 2000;
#X obj 347 278 lop~ 2000;
#X obj 347 309 lop~ 2000;
#X obj 347 344 hip~;
#X obj 461 251 + 300;
#X floatatom 461 195 5 0 0 0 - - -;
#X text 522 115 An attempt to create a "flute" sound based off of http://www.soundonsound.com/sos/oct03/articles/synthsecrets.htm
;
#X obj 461 222 t b f;
#X floatatom 461 277 5 0 0 0 - - -;
#X obj 170 375 tgl 15 0 empty empty empty 17 7 0 10 -262144 -1 -1 0
1;
#X obj 332 446 *~;
#X obj 170 403 adsr_abs~ 1 100 200 95 100;
#X obj 129 195 line;
#X floatatom 129 228 5 0 0 0 - - -;
#X obj 129 18 tgl 15 0 empty empty empty 17 7 0 10 -262144 -1 -1 0
1;
#X obj 129 88 cycle 2;
#X msg 129 69 symbol foo;
#X obj 129 260 + 2000;
#X floatatom 129 290 5 0 0 0 - - -;
#X floatatom 68 260 5 0 0 0 - - -;
#X obj 129 45 metro 125;
#X msg 129 123 400 125;
#X msg 168 165 0 125;
#X connect 1 0 0 3;
#X connect 2 0 0 1;
#X connect 2 1 0 2;
#X connect 3 0 2 2;
#X connect 4 0 6 0;
#X connect 5 0 4 0;
#X connect 5 0 11 0;
#X connect 6 0 7 0;
#X connect 7 0 8 0;
#X connect 8 0 9 0;
#X connect 9 0 10 0;
#X connect 10 0 17 1;
#X connect 11 0 15 0;
#X connect 12 0 14 0;
#X connect 14 0 11 0;
#X connect 14 1 11 1;
#X connect 15 0 10 1;
#X connect 16 0 18 0;
#X connect 17 0 2 0;
#X connect 17 0 2 1;
#X connect 18 0 17 0;
#X connect 19 0 20 0;
#X connect 20 0 24 0;
#X connect 21 0 27 0;
#X connect 22 0 28 0;
#X connect 22 1 29 0;
#X connect 23 0 22 0;
#X connect 24 0 25 0;
#X connect 25 0 6 1;
#X connect 25 0 7 1;
#X connect 25 0 8 1;
#X connect 25 0 9 1;
#X connect 26 0 25 0;
#X connect 27 0 23 0;
#X connect 28 0 19 0;
#X connect 29 0 19 0;
