#N canvas 1172 212 643 516 10;
#X obj 378 475 outlet~;
#X obj 204 24 inlet;
#X obj 378 229 sig~;
#X floatatom 231 154 5 0 0 0 - - -;
#X obj 148 143 pink~;
#X obj 262 291 *~ 0.995;
#X obj 204 76 t b f;
#X obj 307 217 * 0.001;
#X obj 307 243 + 0.95;
#X obj 307 191 inlet;
#X obj 378 255 vd~ \$0-buff;
#X obj 262 317 lop~ 5000;
#X obj 378 177 mtof;
#X floatatom 327 293 5 0 0 0 - - -;
#X obj 375 50 block~ 32 1;
#X obj 204 177 del 2;
#X obj 204 50 unpack 0 0;
#X obj 376 112 * 0.0078;
#X obj 376 138 s \$0-vel;
#X obj 399 308 r \$0-vel;
#X obj 378 356 *~ 1;
#X msg 169 203 1;
#X msg 204 203 0;
#X obj 148 235 *~ 0;
#X text 298 168 feedback;
#X text 105 22 midi note pairs;
#X text 20 143 short burst of noise;
#X obj 378 449 *~;
#X obj 418 421 line~;
#X msg 463 394 1;
#X obj 463 368 t b;
#X obj 418 341 select 0;
#X text 476 338 unclick on note-off;
#X obj 378 281 clip~ -0.5 0.5;
#X obj 378 203 expr 1000/$f1;
#X msg 418 367 0 500;
#X obj 148 432 delwrite~ \$0-buff 256;
#X connect 1 0 16 0;
#X connect 2 0 10 0;
#X connect 3 0 15 1;
#X connect 4 0 23 0;
#X connect 5 0 11 0;
#X connect 6 0 15 0;
#X connect 6 0 21 0;
#X connect 6 1 12 0;
#X connect 7 0 8 0;
#X connect 8 0 5 1;
#X connect 9 0 7 0;
#X connect 10 0 5 0;
#X connect 10 0 33 0;
#X connect 11 0 36 0;
#X connect 12 0 34 0;
#X connect 13 0 11 1;
#X connect 15 0 22 0;
#X connect 16 0 6 0;
#X connect 16 1 17 0;
#X connect 17 0 18 0;
#X connect 19 0 31 0;
#X connect 19 0 20 1;
#X connect 20 0 27 0;
#X connect 21 0 23 1;
#X connect 22 0 23 1;
#X connect 23 0 36 0;
#X connect 27 0 0 0;
#X connect 28 0 27 1;
#X connect 29 0 28 0;
#X connect 30 0 29 0;
#X connect 31 0 35 0;
#X connect 31 1 30 0;
#X connect 33 0 20 0;
#X connect 34 0 2 0;
#X connect 35 0 28 0;
