#N canvas 704 263 493 394 10;
#X obj 207 294 dac~;
#X floatatom 246 222 5 0 50 0 - - -;
#X text 284 224 feedback [50 max];
#X obj 206 32 notein;
#X obj 206 77 stripnote;
#X obj 207 253 pluck2~;
#X text 229 115 Test Notes (midi note number + vel);
#X msg 231 180 \$1 120;
#X floatatom 231 157 5 40 80 0 - - -;
#X obj 231 132 bng 15 250 50 0 empty empty empty 17 7 0 10 -262144
-1 -1;
#X obj 186 57 bng 15 250 50 0 empty empty empty 17 7 0 10 -262144 -1
-1;
#X text 21 317 Optionally \, notes can be "gated" by sending any midi
note with a velocity of 0 after a delay. In practice \, though \, this
doesn't seem to work.;
#X connect 1 0 5 1;
#X connect 3 0 4 0;
#X connect 3 0 10 0;
#X connect 3 1 4 1;
#X connect 4 0 5 0;
#X connect 5 0 0 0;
#X connect 5 0 0 1;
#X connect 7 0 5 0;
#X connect 8 0 7 0;
#X connect 9 0 8 0;
