#N canvas 721 160 849 662 10;
#X obj 64 413 outs_abs~;
#X obj 79 271 osc~ 400;
#X obj 160 271 osc~ 400;
#X obj 149 380 tgl 15 0 empty empty empty 17 7 0 10 -262144 -1 -1 0
1;
#X obj 79 310 *~ 0.1;
#X obj 160 310 *~ 0.1;
#X floatatom 79 235 5 0 0 0 - - -, f 5;
#X floatatom 160 235 5 0 0 0 - - -, f 5;
#X obj 160 196 * 1;
#X msg 79 157 100;
#X obj 333 118 t b f;
#X obj 79 196 * 1;
#X obj 79 118 t b f;
#X floatatom 79 82 5 0 64 0 - - -, f 5;
#X floatatom 333 82 5 0 64 0 - - -, f 5;
#X obj 82 28 hsl 65 15 0.64 64 0 0 empty empty empty -2 -8 0 10 -262144
-1 -1 400 1;
#X obj 79 54 round 1;
#X obj 336 28 hsl 65 15 0.64 64 0 0 empty empty empty -2 -8 0 10 -262144
-1 -1 0 1;
#X obj 333 54 round 1;
#X connect 1 0 4 0;
#X connect 2 0 5 0;
#X connect 3 0 0 3;
#X connect 4 0 0 1;
#X connect 4 0 0 2;
#X connect 5 0 0 1;
#X connect 5 0 0 2;
#X connect 6 0 1 0;
#X connect 7 0 2 0;
#X connect 8 0 7 0;
#X connect 9 0 8 0;
#X connect 9 0 11 0;
#X connect 10 0 9 0;
#X connect 10 1 8 1;
#X connect 11 0 6 0;
#X connect 12 0 9 0;
#X connect 12 1 11 1;
#X connect 13 0 12 0;
#X connect 14 0 10 0;
#X connect 15 0 16 0;
#X connect 16 0 13 0;
#X connect 17 0 18 0;
#X connect 18 0 14 0;
