#N canvas 342 107 626 464 10;
#X obj 39 401 synthRecorder_abs;
#X msg 39 342 open /Users/obmuc/Desktop/test1.aif;
#X obj 67 363 bng 15 250 50 0 empty empty empty 17 7 0 10 -262144 -1
-1;
#X obj 96 379 bng 15 250 50 0 empty empty empty 17 7 0 10 -262144 -1
-1;
#X text 88 360 start recording;
#X text 117 378 stop recording;
#X obj 140 283 line~;
#X obj 124 306 *~;
#X obj 369 23 loadbang;
#X msg 171 250 0 500;
#X msg 221 250 1 500;
#X obj 124 96 osc~ 440;
#X floatatom 124 72 5 0 0 0 - - -;
#X obj 38 29 bng 15 250 50 0 empty empty empty 17 7 0 10 -262144 -1
-1;
#X obj 37 73 t b b;
#X obj 81 46 bng 15 250 50 0 empty empty empty 17 7 0 10 -262144 -1
-1;
#X obj 200 284 select 0;
#X text 59 29 start playback;
#X text 103 44 stop playback;
#X obj 124 117 *~;
#X obj 376 214 metro 500;
#X obj 376 189 r metro;
#X obj 339 242 tabwrite~ array101;
#X msg 401 119 \; metro 0;
#X msg 400 60 \; pd dsp 1 \; metro 1;
#X text 485 79 <-Click to start;
#X text 478 128 <-Click to stop;
#N canvas 0 22 450 300 (subpatch) 0;
#X array array101 100 float 0;
#X coords 0 -1 100 1 200 100 1;
#X restore 374 328 graph;
#X obj 124 137 *~;
#X obj 124 157 *~;
#X obj 124 177 *~;
#X obj 124 199 -~ 0.5;
#X connect 1 0 0 0;
#X connect 2 0 0 1;
#X connect 3 0 0 2;
#X connect 6 0 7 1;
#X connect 7 0 0 3;
#X connect 8 0 9 0;
#X connect 9 0 6 0;
#X connect 9 0 16 0;
#X connect 10 0 6 0;
#X connect 11 0 19 0;
#X connect 11 0 19 1;
#X connect 12 0 11 0;
#X connect 13 0 14 0;
#X connect 14 0 10 0;
#X connect 14 1 2 0;
#X connect 15 0 9 0;
#X connect 16 0 3 0;
#X connect 19 0 28 0;
#X connect 19 0 28 1;
#X connect 20 0 22 0;
#X connect 21 0 20 0;
#X connect 21 0 20 0;
#X connect 28 0 29 0;
#X connect 28 0 29 1;
#X connect 29 0 30 0;
#X connect 29 0 30 1;
#X connect 30 0 31 0;
#X connect 31 0 22 0;
#X connect 31 0 7 0;
